<svg xmlns="http://www.w3.org/2000/svg" width="1200" height="360" viewBox="0 0 1200 360" role="img" aria-labelledby="title desc">
<title id="title">GitHub build history for pkmdev-sec</title>
<desc id="desc">1,615 contributions across 64 active days in the displayed year.</desc>
<defs>
  <linearGradient id="history-bg" x1="0" y1="0" x2="1" y2="1"><stop stop-color="#06140D"/><stop offset="1" stop-color="#0A1F16"/></linearGradient>
  <linearGradient id="history-line" x1="0" y1="0" x2="1" y2="0"><stop stop-color="#14532D"/><stop offset=".5" stop-color="#22C55E"/><stop offset="1" stop-color="#86EFAC"/></linearGradient>
  <radialGradient id="history-glow"><stop stop-color="#22C55E" stop-opacity=".2"/><stop offset="1" stop-color="#22C55E" stop-opacity="0"/></radialGradient>
  <pattern id="history-grid" width="28" height="28" patternUnits="userSpaceOnUse"><path d="M28 0H0V28" fill="none" stroke="#86EFAC" stroke-opacity=".035"/></pattern>
</defs>
<rect x="1" y="1" width="1198" height="358" rx="24" fill="url(#history-bg)" stroke="#1B5E43" stroke-width="2"/>
<rect x="1" y="1" width="1198" height="358" rx="24" fill="url(#history-grid)"/>
<ellipse cx="1120" cy="20" rx="260" ry="170" fill="url(#history-glow)"/>
<rect x="1" y="1" width="1198" height="4" rx="2" fill="url(#history-line)"/>
<g font-family="Inter,Segoe UI,Arial,sans-serif">
  <circle cx="48" cy="37" r="5" fill="#22C55E"/><circle cx="48" cy="37" r="12" fill="none" stroke="#22C55E" stroke-opacity=".22"/>
  <text x="68" y="41" fill="#86EFAC" font-size="10" font-weight="750" letter-spacing="2">PKM / PUBLIC LOG</text>
  <text x="48" y="80" fill="#F0FDF4" font-size="29" font-weight="780">BUILD HISTORY</text><text x="48" y="106" fill="#6EE7B7" font-size="12" font-weight="700" letter-spacing="1.9">A YEAR OF SHIPPING IN PUBLIC</text>
  <g transform="translate(550 105)"><rect width="190" height="62" rx="14" fill="#0B2118" stroke="#1B5E43"/><text x="18" y="28" fill="#ECFDF5" font-size="22" font-weight="750">1,615</text><text x="18" y="47" fill="#6EE7B7" font-size="9" font-weight="700" letter-spacing="1.4">CONTRIBUTIONS</text></g><g transform="translate(756 105)"><rect width="190" height="62" rx="14" fill="#0B2118" stroke="#1B5E43"/><text x="18" y="28" fill="#ECFDF5" font-size="22" font-weight="750">64</text><text x="18" y="47" fill="#6EE7B7" font-size="9" font-weight="700" letter-spacing="1.4">ACTIVE DAYS</text></g><g transform="translate(962 105)"><rect width="190" height="62" rx="14" fill="#0B2118" stroke="#1B5E43"/><text x="18" y="28" fill="#ECFDF5" font-size="22" font-weight="750">9</text><text x="18" y="47" fill="#6EE7B7" font-size="9" font-weight="700" letter-spacing="1.4">LONGEST RUN</text></g>
  <text x="115" y="165" fill="#6EE7B7" font-size="10" font-weight="650" letter-spacing="1">OCT</text><text x="191" y="165" fill="#6EE7B7" font-size="10" font-weight="650" letter-spacing="1">NOV</text><text x="286" y="165" fill="#6EE7B7" font-size="10" font-weight="650" letter-spacing="1">DEC</text><text x="362" y="165" fill="#6EE7B7" font-size="10" font-weight="650" letter-spacing="1">JAN</text><text x="457" y="165" fill="#6EE7B7" font-size="10" font-weight="650" letter-spacing="1">FEB</text><text x="533" y="165" fill="#6EE7B7" font-size="10" font-weight="650" letter-spacing="1">MAR</text><text x="609" y="165" fill="#6EE7B7" font-size="10" font-weight="650" letter-spacing="1">APR</text><text x="685" y="165" fill="#6EE7B7" font-size="10" font-weight="650" letter-spacing="1">MAY</text><text x="780" y="165" fill="#6EE7B7" font-size="10" font-weight="650" letter-spacing="1">JUN</text><text x="856" y="165" fill="#6EE7B7" font-size="10" font-weight="650" letter-spacing="1">JUL</text><text x="932" y="165" fill="#6EE7B7" font-size="10" font-weight="650" letter-spacing="1">AUG</text><text x="1027" y="165" fill="#6EE7B7" font-size="10" font-weight="650" letter-spacing="1">SEP</text><text x="82" y="215" text-anchor="end" fill="#4F8C72" font-size="9" font-weight="650">MON</text><text x="82" y="253" text-anchor="end" fill="#4F8C72" font-size="9" font-weight="650">WED</text><text x="82" y="291" text-anchor="end" fill="#4F8C72" font-size="9" font-weight="650">FRI</text><rect x="96" y="184" width="14" height="14" rx="3" fill="#10281D"><title>2025-09-21: 0 contributions</title></rect><rect x="96" y="203" width="14" height="14" rx="3" fill="#10281D"><title>2025-09-22: 0 contributions</title></rect><rect x="96" y="222" width="14" height="14" rx="3" fill="#10281D"><title>2025-09-23: 0 contributions</title></rect><rect x="96" y="241" width="14" height="14" rx="3" fill="#10281D"><title>2025-09-24: 0 contributions</title></rect><rect x="96" y="260" width="14" height="14" rx="3" fill="#10281D"><title>2025-09-25: 0 contributions</title></rect><rect x="96" y="279" width="14" height="14" rx="3" fill="#10281D"><title>2025-09-26: 0 contributions</title></rect><rect x="96" y="298" width="14" height="14" rx="3" fill="#10281D"><title>2025-09-27: 0 contributions</title></rect><rect x="115" y="184" width="14" height="14" rx="3" fill="#10281D"><title>2025-09-28: 0 contributions</title></rect><rect x="115" y="203" width="14" height="14" rx="3" fill="#10281D"><title>2025-09-29: 0 contributions</title></rect><rect x="115" y="222" width="14" height="14" rx="3" fill="#14532D"><title>2025-09-30: 24 contributions</title></rect><rect x="115" y="241" width="14" height="14" rx="3" fill="#14532D"><title>2025-10-01: 5 contributions</title></rect><rect x="115" y="260" width="14" height="14" rx="3" fill="#10281D"><title>2025-10-02: 0 contributions</title></rect><rect x="115" y="279" width="14" height="14" rx="3" fill="#14532D"><title>2025-10-03: 1 contribution</title></rect><rect x="115" y="298" width="14" height="14" rx="3" fill="#14532D"><title>2025-10-04: 1 contribution</title></rect><rect x="134" y="184" width="14" height="14" rx="3" fill="#10281D"><title>2025-10-05: 0 contributions</title></rect><rect x="134" y="203" width="14" height="14" rx="3" fill="#10281D"><title>2025-10-06: 0 contributions</title></rect><rect x="134" y="222" width="14" height="14" rx="3" fill="#10281D"><title>2025-10-07: 0 contributions</title></rect><rect x="134" y="241" width="14" height="14" rx="3" fill="#14532D"><title>2025-10-08: 2 contributions</title></rect><rect x="134" y="260" width="14" height="14" rx="3" fill="#10281D"><title>2025-10-09: 0 contributions</title></rect><rect x="134" y="279" width="14" height="14" rx="3" fill="#10281D"><title>2025-10-10: 0 contributions</title></rect><rect x="134" y="298" width="14" height="14" rx="3" fill="#10281D"><title>2025-10-11: 0 contributions</title></rect><rect x="153" y="184" width="14" height="14" rx="3" fill="#10281D"><title>2025-10-12: 0 contributions</title></rect><rect x="153" y="203" width="14" height="14" rx="3" fill="#10281D"><title>2025-10-13: 0 contributions</title></rect><rect x="153" y="222" width="14" height="14" rx="3" fill="#10281D"><title>2025-10-14: 0 contributions</title></rect><rect x="153" y="241" width="14" height="14" rx="3" fill="#10281D"><title>2025-10-15: 0 contributions</title></rect><rect x="153" y="260" width="14" height="14" rx="3" fill="#10281D"><title>2025-10-16: 0 contributions</title></rect><rect x="153" y="279" width="14" height="14" rx="3" fill="#10281D"><title>2025-10-17: 0 contributions</title></rect><rect x="153" y="298" width="14" height="14" rx="3" fill="#10281D"><title>2025-10-18: 0 contributions</title></rect><rect x="172" y="184" width="14" height="14" rx="3" fill="#10281D"><title>2025-10-19: 0 contributions</title></rect><rect x="172" y="203" width="14" height="14" rx="3" fill="#10281D"><title>2025-10-20: 0 contributions</title></rect><rect x="172" y="222" width="14" height="14" rx="3" fill="#10281D"><title>2025-10-21: 0 contributions</title></rect><rect x="172" y="241" width="14" height="14" rx="3" fill="#10281D"><title>2025-10-22: 0 contributions</title></rect><rect x="172" y="260" width="14" height="14" rx="3" fill="#10281D"><title>2025-10-23: 0 contributions</title></rect><rect x="172" y="279" width="14" height="14" rx="3" fill="#10281D"><title>2025-10-24: 0 contributions</title></rect><rect x="172" y="298" width="14" height="14" rx="3" fill="#10281D"><title>2025-10-25: 0 contributions</title></rect><rect x="191" y="184" width="14" height="14" rx="3" fill="#10281D"><title>2025-10-26: 0 contributions</title></rect><rect x="191" y="203" width="14" height="14" rx="3" fill="#10281D"><title>2025-10-27: 0 contributions</title></rect><rect x="191" y="222" width="14" height="14" rx="3" fill="#10281D"><title>2025-10-28: 0 contributions</title></rect><rect x="191" y="241" width="14" height="14" rx="3" fill="#10281D"><title>2025-10-29: 0 contributions</title></rect><rect x="191" y="260" width="14" height="14" rx="3" fill="#10281D"><title>2025-10-30: 0 contributions</title></rect><rect x="191" y="279" width="14" height="14" rx="3" fill="#10281D"><title>2025-10-31: 0 contributions</title></rect><rect x="191" y="298" width="14" height="14" rx="3" fill="#10281D"><title>2025-11-01: 0 contributions</title></rect><rect x="210" y="184" width="14" height="14" rx="3" fill="#10281D"><title>2025-11-02: 0 contributions</title></rect><rect x="210" y="203" width="14" height="14" rx="3" fill="#10281D"><title>2025-11-03: 0 contributions</title></rect><rect x="210" y="222" width="14" height="14" rx="3" fill="#10281D"><title>2025-11-04: 0 contributions</title></rect><rect x="210" y="241" width="14" height="14" rx="3" fill="#10281D"><title>2025-11-05: 0 contributions</title></rect><rect x="210" y="260" width="14" height="14" rx="3" fill="#10281D"><title>2025-11-06: 0 contributions</title></rect><rect x="210" y="279" width="14" height="14" rx="3" fill="#10281D"><title>2025-11-07: 0 contributions</title></rect><rect x="210" y="298" width="14" height="14" rx="3" fill="#10281D"><title>2025-11-08: 0 contributions</title></rect><rect x="229" y="184" width="14" height="14" rx="3" fill="#10281D"><title>2025-11-09: 0 contributions</title></rect><rect x="229" y="203" width="14" height="14" rx="3" fill="#10281D"><title>2025-11-10: 0 contributions</title></rect><rect x="229" y="222" width="14" height="14" rx="3" fill="#10281D"><title>2025-11-11: 0 contributions</title></rect><rect x="229" y="241" width="14" height="14" rx="3" fill="#10281D"><title>2025-11-12: 0 contributions</title></rect><rect x="229" y="260" width="14" height="14" rx="3" fill="#10281D"><title>2025-11-13: 0 contributions</title></rect><rect x="229" y="279" width="14" height="14" rx="3" fill="#10281D"><title>2025-11-14: 0 contributions</title></rect><rect x="229" y="298" width="14" height="14" rx="3" fill="#10281D"><title>2025-11-15: 0 contributions</title></rect><rect x="248" y="184" width="14" height="14" rx="3" fill="#10281D"><title>2025-11-16: 0 contributions</title></rect><rect x="248" y="203" width="14" height="14" rx="3" fill="#10281D"><title>2025-11-17: 0 contributions</title></rect><rect x="248" y="222" width="14" height="14" rx="3" fill="#10281D"><title>2025-11-18: 0 contributions</title></rect><rect x="248" y="241" width="14" height="14" rx="3" fill="#10281D"><title>2025-11-19: 0 contributions</title></rect><rect x="248" y="260" width="14" height="14" rx="3" fill="#10281D"><title>2025-11-20: 0 contributions</title></rect><rect x="248" y="279" width="14" height="14" rx="3" fill="#10281D"><title>2025-11-21: 0 contributions</title></rect><rect x="248" y="298" width="14" height="14" rx="3" fill="#10281D"><title>2025-11-22: 0 contributions</title></rect><rect x="267" y="184" width="14" height="14" rx="3" fill="#10281D"><title>2025-11-23: 0 contributions</title></rect><rect x="267" y="203" width="14" height="14" rx="3" fill="#10281D"><title>2025-11-24: 0 contributions</title></rect><rect x="267" y="222" width="14" height="14" rx="3" fill="#10281D"><title>2025-11-25: 0 contributions</title></rect><rect x="267" y="241" width="14" height="14" rx="3" fill="#10281D"><title>2025-11-26: 0 contributions</title></rect><rect x="267" y="260" width="14" height="14" rx="3" fill="#10281D"><title>2025-11-27: 0 contributions</title></rect><rect x="267" y="279" width="14" height="14" rx="3" fill="#10281D"><title>2025-11-28: 0 contributions</title></rect><rect x="267" y="298" width="14" height="14" rx="3" fill="#10281D"><title>2025-11-29: 0 contributions</title></rect><rect x="286" y="184" width="14" height="14" rx="3" fill="#10281D"><title>2025-11-30: 0 contributions</title></rect><rect x="286" y="203" width="14" height="14" rx="3" fill="#10281D"><title>2025-12-01: 0 contributions</title></rect><rect x="286" y="222" width="14" height="14" rx="3" fill="#10281D"><title>2025-12-02: 0 contributions</title></rect><rect x="286" y="241" width="14" height="14" rx="3" fill="#10281D"><title>2025-12-03: 0 contributions</title></rect><rect x="286" y="260" width="14" height="14" rx="3" fill="#10281D"><title>2025-12-04: 0 contributions</title></rect><rect x="286" y="279" width="14" height="14" rx="3" fill="#10281D"><title>2025-12-05: 0 contributions</title></rect><rect x="286" y="298" width="14" height="14" rx="3" fill="#10281D"><title>2025-12-06: 0 contributions</title></rect><rect x="305" y="184" width="14" height="14" rx="3" fill="#10281D"><title>2025-12-07: 0 contributions</title></rect><rect x="305" y="203" width="14" height="14" rx="3" fill="#10281D"><title>2025-12-08: 0 contributions</title></rect><rect x="305" y="222" width="14" height="14" rx="3" fill="#10281D"><title>2025-12-09: 0 contributions</title></rect><rect x="305" y="241" width="14" height="14" rx="3" fill="#10281D"><title>2025-12-10: 0 contributions</title></rect><rect x="305" y="260" width="14" height="14" rx="3" fill="#10281D"><title>2025-12-11: 0 contributions</title></rect><rect x="305" y="279" width="14" height="14" rx="3" fill="#10281D"><title>2025-12-12: 0 contributions</title></rect><rect x="305" y="298" width="14" height="14" rx="3" fill="#10281D"><title>2025-12-13: 0 contributions</title></rect><rect x="324" y="184" width="14" height="14" rx="3" fill="#10281D"><title>2025-12-14: 0 contributions</title></rect><rect x="324" y="203" width="14" height="14" rx="3" fill="#10281D"><title>2025-12-15: 0 contributions</title></rect><rect x="324" y="222" width="14" height="14" rx="3" fill="#10281D"><title>2025-12-16: 0 contributions</title></rect><rect x="324" y="241" width="14" height="14" rx="3" fill="#10281D"><title>2025-12-17: 0 contributions</title></rect><rect x="324" y="260" width="14" height="14" rx="3" fill="#10281D"><title>2025-12-18: 0 contributions</title></rect><rect x="324" y="279" width="14" height="14" rx="3" fill="#10281D"><title>2025-12-19: 0 contributions</title></rect><rect x="324" y="298" width="14" height="14" rx="3" fill="#10281D"><title>2025-12-20: 0 contributions</title></rect><rect x="343" y="184" width="14" height="14" rx="3" fill="#10281D"><title>2025-12-21: 0 contributions</title></rect><rect x="343" y="203" width="14" height="14" rx="3" fill="#10281D"><title>2025-12-22: 0 contributions</title></rect><rect x="343" y="222" width="14" height="14" rx="3" fill="#10281D"><title>2025-12-23: 0 contributions</title></rect><rect x="343" y="241" width="14" height="14" rx="3" fill="#10281D"><title>2025-12-24: 0 contributions</title></rect><rect x="343" y="260" width="14" height="14" rx="3" fill="#10281D"><title>2025-12-25: 0 contributions</title></rect><rect x="343" y="279" width="14" height="14" rx="3" fill="#10281D"><title>2025-12-26: 0 contributions</title></rect><rect x="343" y="298" width="14" height="14" rx="3" fill="#10281D"><title>2025-12-27: 0 contributions</title></rect><rect x="362" y="184" width="14" height="14" rx="3" fill="#10281D"><title>2025-12-28: 0 contributions</title></rect><rect x="362" y="203" width="14" height="14" rx="3" fill="#10281D"><title>2025-12-29: 0 contributions</title></rect><rect x="362" y="222" width="14" height="14" rx="3" fill="#10281D"><title>2025-12-30: 0 contributions</title></rect><rect x="362" y="241" width="14" height="14" rx="3" fill="#10281D"><title>2025-12-31: 0 contributions</title></rect><rect x="362" y="260" width="14" height="14" rx="3" fill="#10281D"><title>2026-01-01: 0 contributions</title></rect><rect x="362" y="279" width="14" height="14" rx="3" fill="#10281D"><title>2026-01-02: 0 contributions</title></rect><rect x="362" y="298" width="14" height="14" rx="3" fill="#10281D"><title>2026-01-03: 0 contributions</title></rect><rect x="381" y="184" width="14" height="14" rx="3" fill="#10281D"><title>2026-01-04: 0 contributions</title></rect><rect x="381" y="203" width="14" height="14" rx="3" fill="#10281D"><title>2026-01-05: 0 contributions</title></rect><rect x="381" y="222" width="14" height="14" rx="3" fill="#10281D"><title>2026-01-06: 0 contributions</title></rect><rect x="381" y="241" width="14" height="14" rx="3" fill="#10281D"><title>2026-01-07: 0 contributions</title></rect><rect x="381" y="260" width="14" height="14" rx="3" fill="#14532D"><title>2026-01-08: 22 contributions</title></rect><rect x="381" y="279" width="14" height="14" rx="3" fill="#10281D"><title>2026-01-09: 0 contributions</title></rect><rect x="381" y="298" width="14" height="14" rx="3" fill="#10281D"><title>2026-01-10: 0 contributions</title></rect><rect x="400" y="184" width="14" height="14" rx="3" fill="#10281D"><title>2026-01-11: 0 contributions</title></rect><rect x="400" y="203" width="14" height="14" rx="3" fill="#10281D"><title>2026-01-12: 0 contributions</title></rect><rect x="400" y="222" width="14" height="14" rx="3" fill="#10281D"><title>2026-01-13: 0 contributions</title></rect><rect x="400" y="241" width="14" height="14" rx="3" fill="#10281D"><title>2026-01-14: 0 contributions</title></rect><rect x="400" y="260" width="14" height="14" rx="3" fill="#10281D"><title>2026-01-15: 0 contributions</title></rect><rect x="400" y="279" width="14" height="14" rx="3" fill="#10281D"><title>2026-01-16: 0 contributions</title></rect><rect x="400" y="298" width="14" height="14" rx="3" fill="#10281D"><title>2026-01-17: 0 contributions</title></rect><rect x="419" y="184" width="14" height="14" rx="3" fill="#10281D"><title>2026-01-18: 0 contributions</title></rect><rect x="419" y="203" width="14" height="14" rx="3" fill="#10281D"><title>2026-01-19: 0 contributions</title></rect><rect x="419" y="222" width="14" height="14" rx="3" fill="#10281D"><title>2026-01-20: 0 contributions</title></rect><rect x="419" y="241" width="14" height="14" rx="3" fill="#10281D"><title>2026-01-21: 0 contributions</title></rect><rect x="419" y="260" width="14" height="14" rx="3" fill="#14532D"><title>2026-01-22: 3 contributions</title></rect><rect x="419" y="279" width="14" height="14" rx="3" fill="#10281D"><title>2026-01-23: 0 contributions</title></rect><rect x="419" y="298" width="14" height="14" rx="3" fill="#10281D"><title>2026-01-24: 0 contributions</title></rect><rect x="438" y="184" width="14" height="14" rx="3" fill="#10281D"><title>2026-01-25: 0 contributions</title></rect><rect x="438" y="203" width="14" height="14" rx="3" fill="#14532D"><title>2026-01-26: 8 contributions</title></rect><rect x="438" y="222" width="14" height="14" rx="3" fill="#14532D"><title>2026-01-27: 4 contributions</title></rect><rect x="438" y="241" width="14" height="14" rx="3" fill="#86EFAC"><title>2026-01-28: 178 contributions</title></rect><rect x="438" y="260" width="14" height="14" rx="3" fill="#14532D"><title>2026-01-29: 5 contributions</title></rect><rect x="438" y="279" width="14" height="14" rx="3" fill="#10281D"><title>2026-01-30: 0 contributions</title></rect><rect x="438" y="298" width="14" height="14" rx="3" fill="#10281D"><title>2026-01-31: 0 contributions</title></rect><rect x="457" y="184" width="14" height="14" rx="3" fill="#10281D"><title>2026-02-01: 0 contributions</title></rect><rect x="457" y="203" width="14" height="14" rx="3" fill="#10281D"><title>2026-02-02: 0 contributions</title></rect><rect x="457" y="222" width="14" height="14" rx="3" fill="#14532D"><title>2026-02-03: 28 contributions</title></rect><rect x="457" y="241" width="14" height="14" rx="3" fill="#14532D"><title>2026-02-04: 22 contributions</title></rect><rect x="457" y="260" width="14" height="14" rx="3" fill="#14532D"><title>2026-02-05: 4 contributions</title></rect><rect x="457" y="279" width="14" height="14" rx="3" fill="#14532D"><title>2026-02-06: 23 contributions</title></rect><rect x="457" y="298" width="14" height="14" rx="3" fill="#10281D"><title>2026-02-07: 0 contributions</title></rect><rect x="476" y="184" width="14" height="14" rx="3" fill="#14532D"><title>2026-02-08: 3 contributions</title></rect><rect x="476" y="203" width="14" height="14" rx="3" fill="#14532D"><title>2026-02-09: 30 contributions</title></rect><rect x="476" y="222" width="14" height="14" rx="3" fill="#15803D"><title>2026-02-10: 46 contributions</title></rect><rect x="476" y="241" width="14" height="14" rx="3" fill="#14532D"><title>2026-02-11: 7 contributions</title></rect><rect x="476" y="260" width="14" height="14" rx="3" fill="#14532D"><title>2026-02-12: 6 contributions</title></rect><rect x="476" y="279" width="14" height="14" rx="3" fill="#10281D"><title>2026-02-13: 0 contributions</title></rect><rect x="476" y="298" width="14" height="14" rx="3" fill="#14532D"><title>2026-02-14: 1 contribution</title></rect><rect x="495" y="184" width="14" height="14" rx="3" fill="#14532D"><title>2026-02-15: 2 contributions</title></rect><rect x="495" y="203" width="14" height="14" rx="3" fill="#14532D"><title>2026-02-16: 20 contributions</title></rect><rect x="495" y="222" width="14" height="14" rx="3" fill="#14532D"><title>2026-02-17: 2 contributions</title></rect><rect x="495" y="241" width="14" height="14" rx="3" fill="#14532D"><title>2026-02-18: 16 contributions</title></rect><rect x="495" y="260" width="14" height="14" rx="3" fill="#14532D"><title>2026-02-19: 24 contributions</title></rect><rect x="495" y="279" width="14" height="14" rx="3" fill="#14532D"><title>2026-02-20: 1 contribution</title></rect><rect x="495" y="298" width="14" height="14" rx="3" fill="#14532D"><title>2026-02-21: 4 contributions</title></rect><rect x="514" y="184" width="14" height="14" rx="3" fill="#14532D"><title>2026-02-22: 2 contributions</title></rect><rect x="514" y="203" width="14" height="14" rx="3" fill="#10281D"><title>2026-02-23: 0 contributions</title></rect><rect x="514" y="222" width="14" height="14" rx="3" fill="#14532D"><title>2026-02-24: 1 contribution</title></rect><rect x="514" y="241" width="14" height="14" rx="3" fill="#10281D"><title>2026-02-25: 0 contributions</title></rect><rect x="514" y="260" width="14" height="14" rx="3" fill="#10281D"><title>2026-02-26: 0 contributions</title></rect><rect x="514" y="279" width="14" height="14" rx="3" fill="#14532D"><title>2026-02-27: 2 contributions</title></rect><rect x="514" y="298" width="14" height="14" rx="3" fill="#10281D"><title>2026-02-28: 0 contributions</title></rect><rect x="533" y="184" width="14" height="14" rx="3" fill="#14532D"><title>2026-03-01: 4 contributions</title></rect><rect x="533" y="203" width="14" height="14" rx="3" fill="#10281D"><title>2026-03-02: 0 contributions</title></rect><rect x="533" y="222" width="14" height="14" rx="3" fill="#14532D"><title>2026-03-03: 2 contributions</title></rect><rect x="533" y="241" width="14" height="14" rx="3" fill="#10281D"><title>2026-03-04: 0 contributions</title></rect><rect x="533" y="260" width="14" height="14" rx="3" fill="#10281D"><title>2026-03-05: 0 contributions</title></rect><rect x="533" y="279" width="14" height="14" rx="3" fill="#10281D"><title>2026-03-06: 0 contributions</title></rect><rect x="533" y="298" width="14" height="14" rx="3" fill="#10281D"><title>2026-03-07: 0 contributions</title></rect><rect x="552" y="184" width="14" height="14" rx="3" fill="#10281D"><title>2026-03-08: 0 contributions</title></rect><rect x="552" y="203" width="14" height="14" rx="3" fill="#14532D"><title>2026-03-09: 9 contributions</title></rect><rect x="552" y="222" width="14" height="14" rx="3" fill="#14532D"><title>2026-03-10: 36 contributions</title></rect><rect x="552" y="241" width="14" height="14" rx="3" fill="#14532D"><title>2026-03-11: 13 contributions</title></rect><rect x="552" y="260" width="14" height="14" rx="3" fill="#86EFAC"><title>2026-03-12: 165 contributions</title></rect><rect x="552" y="279" width="14" height="14" rx="3" fill="#22C55E"><title>2026-03-13: 83 contributions</title></rect><rect x="552" y="298" width="14" height="14" rx="3" fill="#10281D"><title>2026-03-14: 0 contributions</title></rect><rect x="571" y="184" width="14" height="14" rx="3" fill="#10281D"><title>2026-03-15: 0 contributions</title></rect><rect x="571" y="203" width="14" height="14" rx="3" fill="#10281D"><title>2026-03-16: 0 contributions</title></rect><rect x="571" y="222" width="14" height="14" rx="3" fill="#10281D"><title>2026-03-17: 0 contributions</title></rect><rect x="571" y="241" width="14" height="14" rx="3" fill="#10281D"><title>2026-03-18: 0 contributions</title></rect><rect x="571" y="260" width="14" height="14" rx="3" fill="#14532D"><title>2026-03-19: 3 contributions</title></rect><rect x="571" y="279" width="14" height="14" rx="3" fill="#22C55E"><title>2026-03-20: 87 contributions</title></rect><rect x="571" y="298" width="14" height="14" rx="3" fill="#10281D"><title>2026-03-21: 0 contributions</title></rect><rect x="590" y="184" width="14" height="14" rx="3" fill="#10281D"><title>2026-03-22: 0 contributions</title></rect><rect x="590" y="203" width="14" height="14" rx="3" fill="#14532D"><title>2026-03-23: 9 contributions</title></rect><rect x="590" y="222" width="14" height="14" rx="3" fill="#14532D"><title>2026-03-24: 5 contributions</title></rect><rect x="590" y="241" width="14" height="14" rx="3" fill="#14532D"><title>2026-03-25: 3 contributions</title></rect><rect x="590" y="260" width="14" height="14" rx="3" fill="#10281D"><title>2026-03-26: 0 contributions</title></rect><rect x="590" y="279" width="14" height="14" rx="3" fill="#10281D"><title>2026-03-27: 0 contributions</title></rect><rect x="590" y="298" width="14" height="14" rx="3" fill="#10281D"><title>2026-03-28: 0 contributions</title></rect><rect x="609" y="184" width="14" height="14" rx="3" fill="#14532D"><title>2026-03-29: 4 contributions</title></rect><rect x="609" y="203" width="14" height="14" rx="3" fill="#14532D"><title>2026-03-30: 2 contributions</title></rect><rect x="609" y="222" width="14" height="14" rx="3" fill="#10281D"><title>2026-03-31: 0 contributions</title></rect><rect x="609" y="241" width="14" height="14" rx="3" fill="#10281D"><title>2026-04-01: 0 contributions</title></rect><rect x="609" y="260" width="14" height="14" rx="3" fill="#10281D"><title>2026-04-02: 0 contributions</title></rect><rect x="609" y="279" width="14" height="14" rx="3" fill="#10281D"><title>2026-04-03: 0 contributions</title></rect><rect x="609" y="298" width="14" height="14" rx="3" fill="#10281D"><title>2026-04-04: 0 contributions</title></rect><rect x="628" y="184" width="14" height="14" rx="3" fill="#10281D"><title>2026-04-05: 0 contributions</title></rect><rect x="628" y="203" width="14" height="14" rx="3" fill="#10281D"><title>2026-04-06: 0 contributions</title></rect><rect x="628" y="222" width="14" height="14" rx="3" fill="#10281D"><title>2026-04-07: 0 contributions</title></rect><rect x="628" y="241" width="14" height="14" rx="3" fill="#10281D"><title>2026-04-08: 0 contributions</title></rect><rect x="628" y="260" width="14" height="14" rx="3" fill="#14532D"><title>2026-04-09: 1 contribution</title></rect><rect x="628" y="279" width="14" height="14" rx="3" fill="#14532D"><title>2026-04-10: 11 contributions</title></rect><rect x="628" y="298" width="14" height="14" rx="3" fill="#10281D"><title>2026-04-11: 0 contributions</title></rect><rect x="647" y="184" width="14" height="14" rx="3" fill="#10281D"><title>2026-04-12: 0 contributions</title></rect><rect x="647" y="203" width="14" height="14" rx="3" fill="#10281D"><title>2026-04-13: 0 contributions</title></rect><rect x="647" y="222" width="14" height="14" rx="3" fill="#14532D"><title>2026-04-14: 1 contribution</title></rect><rect x="647" y="241" width="14" height="14" rx="3" fill="#14532D"><title>2026-04-15: 20 contributions</title></rect><rect x="647" y="260" width="14" height="14" rx="3" fill="#14532D"><title>2026-04-16: 7 contributions</title></rect><rect x="647" y="279" width="14" height="14" rx="3" fill="#10281D"><title>2026-04-17: 0 contributions</title></rect><rect x="647" y="298" width="14" height="14" rx="3" fill="#10281D"><title>2026-04-18: 0 contributions</title></rect><rect x="666" y="184" width="14" height="14" rx="3" fill="#14532D"><title>2026-04-19: 5 contributions</title></rect><rect x="666" y="203" width="14" height="14" rx="3" fill="#10281D"><title>2026-04-20: 0 contributions</title></rect><rect x="666" y="222" width="14" height="14" rx="3" fill="#14532D"><title>2026-04-21: 24 contributions</title></rect><rect x="666" y="241" width="14" height="14" rx="3" fill="#14532D"><title>2026-04-22: 26 contributions</title></rect><rect x="666" y="260" width="14" height="14" rx="3" fill="#15803D"><title>2026-04-23: 59 contributions</title></rect><rect x="666" y="279" width="14" height="14" rx="3" fill="#10281D"><title>2026-04-24: 0 contributions</title></rect><rect x="666" y="298" width="14" height="14" rx="3" fill="#22C55E"><title>2026-04-25: 116 contributions</title></rect><rect x="685" y="184" width="14" height="14" rx="3" fill="#15803D"><title>2026-04-26: 67 contributions</title></rect><rect x="685" y="203" width="14" height="14" rx="3" fill="#86EFAC"><title>2026-04-27: 125 contributions</title></rect><rect x="685" y="222" width="14" height="14" rx="3" fill="#14532D"><title>2026-04-28: 37 contributions</title></rect><rect x="685" y="241" width="14" height="14" rx="3" fill="#14532D"><title>2026-04-29: 1 contribution</title></rect><rect x="685" y="260" width="14" height="14" rx="3" fill="#10281D"><title>2026-04-30: 0 contributions</title></rect><rect x="685" y="279" width="14" height="14" rx="3" fill="#10281D"><title>2026-05-01: 0 contributions</title></rect><rect x="685" y="298" width="14" height="14" rx="3" fill="#10281D"><title>2026-05-02: 0 contributions</title></rect><rect x="704" y="184" width="14" height="14" rx="3" fill="#10281D"><title>2026-05-03: 0 contributions</title></rect><rect x="704" y="203" width="14" height="14" rx="3" fill="#10281D"><title>2026-05-04: 0 contributions</title></rect><rect x="704" y="222" width="14" height="14" rx="3" fill="#10281D"><title>2026-05-05: 0 contributions</title></rect><rect x="704" y="241" width="14" height="14" rx="3" fill="#10281D"><title>2026-05-06: 0 contributions</title></rect><rect x="704" y="260" width="14" height="14" rx="3" fill="#10281D"><title>2026-05-07: 0 contributions</title></rect><rect x="704" y="279" width="14" height="14" rx="3" fill="#10281D"><title>2026-05-08: 0 contributions</title></rect><rect x="704" y="298" width="14" height="14" rx="3" fill="#10281D"><title>2026-05-09: 0 contributions</title></rect><rect x="723" y="184" width="14" height="14" rx="3" fill="#10281D"><title>2026-05-10: 0 contributions</title></rect><rect x="723" y="203" width="14" height="14" rx="3" fill="#10281D"><title>2026-05-11: 0 contributions</title></rect><rect x="723" y="222" width="14" height="14" rx="3" fill="#10281D"><title>2026-05-12: 0 contributions</title></rect><rect x="723" y="241" width="14" height="14" rx="3" fill="#10281D"><title>2026-05-13: 0 contributions</title></rect><rect x="723" y="260" width="14" height="14" rx="3" fill="#10281D"><title>2026-05-14: 0 contributions</title></rect><rect x="723" y="279" width="14" height="14" rx="3" fill="#10281D"><title>2026-05-15: 0 contributions</title></rect><rect x="723" y="298" width="14" height="14" rx="3" fill="#10281D"><title>2026-05-16: 0 contributions</title></rect><rect x="742" y="184" width="14" height="14" rx="3" fill="#10281D"><title>2026-05-17: 0 contributions</title></rect><rect x="742" y="203" width="14" height="14" rx="3" fill="#10281D"><title>2026-05-18: 0 contributions</title></rect><rect x="742" y="222" width="14" height="14" rx="3" fill="#10281D"><title>2026-05-19: 0 contributions</title></rect><rect x="742" y="241" width="14" height="14" rx="3" fill="#10281D"><title>2026-05-20: 0 contributions</title></rect><rect x="742" y="260" width="14" height="14" rx="3" fill="#10281D"><title>2026-05-21: 0 contributions</title></rect><rect x="742" y="279" width="14" height="14" rx="3" fill="#10281D"><title>2026-05-22: 0 contributions</title></rect><rect x="742" y="298" width="14" height="14" rx="3" fill="#10281D"><title>2026-05-23: 0 contributions</title></rect><rect x="761" y="184" width="14" height="14" rx="3" fill="#10281D"><title>2026-05-24: 0 contributions</title></rect><rect x="761" y="203" width="14" height="14" rx="3" fill="#10281D"><title>2026-05-25: 0 contributions</title></rect><rect x="761" y="222" width="14" height="14" rx="3" fill="#10281D"><title>2026-05-26: 0 contributions</title></rect><rect x="761" y="241" width="14" height="14" rx="3" fill="#10281D"><title>2026-05-27: 0 contributions</title></rect><rect x="761" y="260" width="14" height="14" rx="3" fill="#10281D"><title>2026-05-28: 0 contributions</title></rect><rect x="761" y="279" width="14" height="14" rx="3" fill="#10281D"><title>2026-05-29: 0 contributions</title></rect><rect x="761" y="298" width="14" height="14" rx="3" fill="#10281D"><title>2026-05-30: 0 contributions</title></rect><rect x="780" y="184" width="14" height="14" rx="3" fill="#10281D"><title>2026-05-31: 0 contributions</title></rect><rect x="780" y="203" width="14" height="14" rx="3" fill="#10281D"><title>2026-06-01: 0 contributions</title></rect><rect x="780" y="222" width="14" height="14" rx="3" fill="#10281D"><title>2026-06-02: 0 contributions</title></rect><rect x="780" y="241" width="14" height="14" rx="3" fill="#10281D"><title>2026-06-03: 0 contributions</title></rect><rect x="780" y="260" width="14" height="14" rx="3" fill="#10281D"><title>2026-06-04: 0 contributions</title></rect><rect x="780" y="279" width="14" height="14" rx="3" fill="#10281D"><title>2026-06-05: 0 contributions</title></rect><rect x="780" y="298" width="14" height="14" rx="3" fill="#10281D"><title>2026-06-06: 0 contributions</title></rect><rect x="799" y="184" width="14" height="14" rx="3" fill="#10281D"><title>2026-06-07: 0 contributions</title></rect><rect x="799" y="203" width="14" height="14" rx="3" fill="#14532D"><title>2026-06-08: 1 contribution</title></rect><rect x="799" y="222" width="14" height="14" rx="3" fill="#10281D"><title>2026-06-09: 0 contributions</title></rect><rect x="799" y="241" width="14" height="14" rx="3" fill="#10281D"><title>2026-06-10: 0 contributions</title></rect><rect x="799" y="260" width="14" height="14" rx="3" fill="#10281D"><title>2026-06-11: 0 contributions</title></rect><rect x="799" y="279" width="14" height="14" rx="3" fill="#10281D"><title>2026-06-12: 0 contributions</title></rect><rect x="799" y="298" width="14" height="14" rx="3" fill="#10281D"><title>2026-06-13: 0 contributions</title></rect><rect x="818" y="184" width="14" height="14" rx="3" fill="#10281D"><title>2026-06-14: 0 contributions</title></rect><rect x="818" y="203" width="14" height="14" rx="3" fill="#10281D"><title>2026-06-15: 0 contributions</title></rect><rect x="818" y="222" width="14" height="14" rx="3" fill="#10281D"><title>2026-06-16: 0 contributions</title></rect><rect x="818" y="241" width="14" height="14" rx="3" fill="#10281D"><title>2026-06-17: 0 contributions</title></rect><rect x="818" y="260" width="14" height="14" rx="3" fill="#10281D"><title>2026-06-18: 0 contributions</title></rect><rect x="818" y="279" width="14" height="14" rx="3" fill="#10281D"><title>2026-06-19: 0 contributions</title></rect><rect x="818" y="298" width="14" height="14" rx="3" fill="#10281D"><title>2026-06-20: 0 contributions</title></rect><rect x="837" y="184" width="14" height="14" rx="3" fill="#10281D"><title>2026-06-21: 0 contributions</title></rect><rect x="837" y="203" width="14" height="14" rx="3" fill="#10281D"><title>2026-06-22: 0 contributions</title></rect><rect x="837" y="222" width="14" height="14" rx="3" fill="#10281D"><title>2026-06-23: 0 contributions</title></rect><rect x="837" y="241" width="14" height="14" rx="3" fill="#10281D"><title>2026-06-24: 0 contributions</title></rect><rect x="837" y="260" width="14" height="14" rx="3" fill="#10281D"><title>2026-06-25: 0 contributions</title></rect><rect x="837" y="279" width="14" height="14" rx="3" fill="#10281D"><title>2026-06-26: 0 contributions</title></rect><rect x="837" y="298" width="14" height="14" rx="3" fill="#10281D"><title>2026-06-27: 0 contributions</title></rect><rect x="856" y="184" width="14" height="14" rx="3" fill="#10281D"><title>2026-06-28: 0 contributions</title></rect><rect x="856" y="203" width="14" height="14" rx="3" fill="#10281D"><title>2026-06-29: 0 contributions</title></rect><rect x="856" y="222" width="14" height="14" rx="3" fill="#10281D"><title>2026-06-30: 0 contributions</title></rect><rect x="856" y="241" width="14" height="14" rx="3" fill="#10281D"><title>2026-07-01: 0 contributions</title></rect><rect x="856" y="260" width="14" height="14" rx="3" fill="#10281D"><title>2026-07-02: 0 contributions</title></rect><rect x="856" y="279" width="14" height="14" rx="3" fill="#10281D"><title>2026-07-03: 0 contributions</title></rect><rect x="856" y="298" width="14" height="14" rx="3" fill="#10281D"><title>2026-07-04: 0 contributions</title></rect><rect x="875" y="184" width="14" height="14" rx="3" fill="#10281D"><title>2026-07-05: 0 contributions</title></rect><rect x="875" y="203" width="14" height="14" rx="3" fill="#10281D"><title>2026-07-06: 0 contributions</title></rect><rect x="875" y="222" width="14" height="14" rx="3" fill="#10281D"><title>2026-07-07: 0 contributions</title></rect><rect x="875" y="241" width="14" height="14" rx="3" fill="#10281D"><title>2026-07-08: 0 contributions</title></rect><rect x="875" y="260" width="14" height="14" rx="3" fill="#10281D"><title>2026-07-09: 0 contributions</title></rect><rect x="875" y="279" width="14" height="14" rx="3" fill="#10281D"><title>2026-07-10: 0 contributions</title></rect><rect x="875" y="298" width="14" height="14" rx="3" fill="#10281D"><title>2026-07-11: 0 contributions</title></rect><rect x="894" y="184" width="14" height="14" rx="3" fill="#10281D"><title>2026-07-12: 0 contributions</title></rect><rect x="894" y="203" width="14" height="14" rx="3" fill="#10281D"><title>2026-07-13: 0 contributions</title></rect><rect x="894" y="222" width="14" height="14" rx="3" fill="#10281D"><title>2026-07-14: 0 contributions</title></rect><rect x="894" y="241" width="14" height="14" rx="3" fill="#10281D"><title>2026-07-15: 0 contributions</title></rect><rect x="894" y="260" width="14" height="14" rx="3" fill="#10281D"><title>2026-07-16: 0 contributions</title></rect><rect x="894" y="279" width="14" height="14" rx="3" fill="#10281D"><title>2026-07-17: 0 contributions</title></rect><rect x="894" y="298" width="14" height="14" rx="3" fill="#10281D"><title>2026-07-18: 0 contributions</title></rect><rect x="913" y="184" width="14" height="14" rx="3" fill="#10281D"><title>2026-07-19: 0 contributions</title></rect><rect x="913" y="203" width="14" height="14" rx="3" fill="#10281D"><title>2026-07-20: 0 contributions</title></rect><rect x="913" y="222" width="14" height="14" rx="3" fill="#10281D"><title>2026-07-21: 0 contributions</title></rect><rect x="913" y="241" width="14" height="14" rx="3" fill="#10281D"><title>2026-07-22: 0 contributions</title></rect><rect x="913" y="260" width="14" height="14" rx="3" fill="#10281D"><title>2026-07-23: 0 contributions</title></rect><rect x="913" y="279" width="14" height="14" rx="3" fill="#10281D"><title>2026-07-24: 0 contributions</title></rect><rect x="913" y="298" width="14" height="14" rx="3" fill="#10281D"><title>2026-07-25: 0 contributions</title></rect><rect x="932" y="184" width="14" height="14" rx="3" fill="#10281D"><title>2026-07-26: 0 contributions</title></rect><rect x="932" y="203" width="14" height="14" rx="3" fill="#10281D"><title>2026-07-27: 0 contributions</title></rect><rect x="932" y="222" width="14" height="14" rx="3" fill="#10281D"><title>2026-07-28: 0 contributions</title></rect><rect x="932" y="241" width="14" height="14" rx="3" fill="#10281D"><title>2026-07-29: 0 contributions</title></rect><rect x="932" y="260" width="14" height="14" rx="3" fill="#10281D"><title>2026-07-30: 0 contributions</title></rect><rect x="932" y="279" width="14" height="14" rx="3" fill="#10281D"><title>2026-07-31: 0 contributions</title></rect><rect x="932" y="298" width="14" height="14" rx="3" fill="#10281D"><title>2026-08-01: 0 contributions</title></rect><rect x="951" y="184" width="14" height="14" rx="3" fill="#10281D"><title>2026-08-02: 0 contributions</title></rect><rect x="951" y="203" width="14" height="14" rx="3" fill="#10281D"><title>2026-08-03: 0 contributions</title></rect><rect x="951" y="222" width="14" height="14" rx="3" fill="#10281D"><title>2026-08-04: 0 contributions</title></rect><rect x="951" y="241" width="14" height="14" rx="3" fill="#10281D"><title>2026-08-05: 0 contributions</title></rect><rect x="951" y="260" width="14" height="14" rx="3" fill="#10281D"><title>2026-08-06: 0 contributions</title></rect><rect x="951" y="279" width="14" height="14" rx="3" fill="#10281D"><title>2026-08-07: 0 contributions</title></rect><rect x="951" y="298" width="14" height="14" rx="3" fill="#10281D"><title>2026-08-08: 0 contributions</title></rect><rect x="970" y="184" width="14" height="14" rx="3" fill="#10281D"><title>2026-08-09: 0 contributions</title></rect><rect x="970" y="203" width="14" height="14" rx="3" fill="#10281D"><title>2026-08-10: 0 contributions</title></rect><rect x="970" y="222" width="14" height="14" rx="3" fill="#10281D"><title>2026-08-11: 0 contributions</title></rect><rect x="970" y="241" width="14" height="14" rx="3" fill="#10281D"><title>2026-08-12: 0 contributions</title></rect><rect x="970" y="260" width="14" height="14" rx="3" fill="#10281D"><title>2026-08-13: 0 contributions</title></rect><rect x="970" y="279" width="14" height="14" rx="3" fill="#10281D"><title>2026-08-14: 0 contributions</title></rect><rect x="970" y="298" width="14" height="14" rx="3" fill="#10281D"><title>2026-08-15: 0 contributions</title></rect><rect x="989" y="184" width="14" height="14" rx="3" fill="#10281D"><title>2026-08-16: 0 contributions</title></rect><rect x="989" y="203" width="14" height="14" rx="3" fill="#10281D"><title>2026-08-17: 0 contributions</title></rect><rect x="989" y="222" width="14" height="14" rx="3" fill="#10281D"><title>2026-08-18: 0 contributions</title></rect><rect x="989" y="241" width="14" height="14" rx="3" fill="#10281D"><title>2026-08-19: 0 contributions</title></rect><rect x="989" y="260" width="14" height="14" rx="3" fill="#10281D"><title>2026-08-20: 0 contributions</title></rect><rect x="989" y="279" width="14" height="14" rx="3" fill="#10281D"><title>2026-08-21: 0 contributions</title></rect><rect x="989" y="298" width="14" height="14" rx="3" fill="#10281D"><title>2026-08-22: 0 contributions</title></rect><rect x="1008" y="184" width="14" height="14" rx="3" fill="#10281D"><title>2026-08-23: 0 contributions</title></rect><rect x="1008" y="203" width="14" height="14" rx="3" fill="#10281D"><title>2026-08-24: 0 contributions</title></rect><rect x="1008" y="222" width="14" height="14" rx="3" fill="#10281D"><title>2026-08-25: 0 contributions</title></rect><rect x="1008" y="241" width="14" height="14" rx="3" fill="#10281D"><title>2026-08-26: 0 contributions</title></rect><rect x="1008" y="260" width="14" height="14" rx="3" fill="#10281D"><title>2026-08-27: 0 contributions</title></rect><rect x="1008" y="279" width="14" height="14" rx="3" fill="#10281D"><title>2026-08-28: 0 contributions</title></rect><rect x="1008" y="298" width="14" height="14" rx="3" fill="#10281D"><title>2026-08-29: 0 contributions</title></rect><rect x="1027" y="184" width="14" height="14" rx="3" fill="#10281D"><title>2026-08-30: 0 contributions</title></rect><rect x="1027" y="203" width="14" height="14" rx="3" fill="#10281D"><title>2026-08-31: 0 contributions</title></rect><rect x="1027" y="222" width="14" height="14" rx="3" fill="#10281D"><title>2026-09-01: 0 contributions</title></rect><rect x="1027" y="241" width="14" height="14" rx="3" fill="#10281D"><title>2026-09-02: 0 contributions</title></rect><rect x="1027" y="260" width="14" height="14" rx="3" fill="#10281D"><title>2026-09-03: 0 contributions</title></rect><rect x="1027" y="279" width="14" height="14" rx="3" fill="#10281D"><title>2026-09-04: 0 contributions</title></rect><rect x="1027" y="298" width="14" height="14" rx="3" fill="#10281D"><title>2026-09-05: 0 contributions</title></rect><rect x="1046" y="184" width="14" height="14" rx="3" fill="#14532D"><title>2026-09-06: 32 contributions</title></rect><rect x="1046" y="203" width="14" height="14" rx="3" fill="#10281D"><title>2026-09-07: 0 contributions</title></rect><rect x="1046" y="222" width="14" height="14" rx="3" fill="#10281D"><title>2026-09-08: 0 contributions</title></rect><rect x="1046" y="241" width="14" height="14" rx="3" fill="#14532D"><title>2026-09-09: 2 contributions</title></rect><rect x="1046" y="260" width="14" height="14" rx="3" fill="#10281D"><title>2026-09-10: 0 contributions</title></rect><rect x="1046" y="279" width="14" height="14" rx="3" fill="#10281D"><title>2026-09-11: 0 contributions</title></rect><rect x="1046" y="298" width="14" height="14" rx="3" fill="#10281D"><title>2026-09-12: 0 contributions</title></rect><rect x="1065" y="184" width="14" height="14" rx="3" fill="#14532D"><title>2026-09-13: 1 contribution</title></rect><rect x="1065" y="203" width="14" height="14" rx="3" fill="#10281D"><title>2026-09-14: 0 contributions</title></rect><rect x="1065" y="222" width="14" height="14" rx="3" fill="#10281D"><title>2026-09-15: 0 contributions</title></rect><rect x="1065" y="241" width="14" height="14" rx="3" fill="#10281D"><title>2026-09-16: 0 contributions</title></rect><rect x="1065" y="260" width="14" height="14" rx="3" fill="#10281D"><title>2026-09-17: 0 contributions</title></rect><rect x="1065" y="279" width="14" height="14" rx="3" fill="#10281D"><title>2026-09-18: 0 contributions</title></rect><rect x="1065" y="298" width="14" height="14" rx="3" fill="#10281D"><title>2026-09-19: 0 contributions</title></rect><rect x="1084" y="184" width="14" height="14" rx="3" fill="#86EFAC"><title>2026-09-20: 157 contributions</title></rect>
  <g transform="translate(96 333)" font-size="9" font-weight="650" letter-spacing="1">
    <text fill="#4F8C72">LESS</text>
    <rect x="39" y="-10" width="11" height="11" rx="2.5" fill="#10281D"/><rect x="56" y="-10" width="11" height="11" rx="2.5" fill="#14532D"/><rect x="73" y="-10" width="11" height="11" rx="2.5" fill="#15803D"/><rect x="90" y="-10" width="11" height="11" rx="2.5" fill="#22C55E"/><rect x="107" y="-10" width="11" height="11" rx="2.5" fill="#86EFAC"/>
    <text x="132" fill="#4F8C72">MORE</text>
  </g>
  <text x="1158" y="335" text-anchor="end" fill="#4F8C72" font-size="9" font-weight="650" letter-spacing="1.1">SNAPSHOT · 20 SEP 2026</text>
</g>
</svg>
