<svg xmlns="http://www.w3.org/2000/svg" width="1200" height="330" viewBox="0 0 1200 330" role="img" aria-labelledby="title desc">
<title id="title">CIS HARDENED AMI — conceptual workflow</title>
<desc id="desc">Packer build to Ansible rules to Image hardening to AMI artifact. Image creation and hardening rules stay separate. Uses upstream AMAZON2-CIS rules</desc>
<defs><pattern id="grid" width="24" height="24" patternUnits="userSpaceOnUse"><path d="M24 0H0V24" fill="none" stroke="#ffffff" opacity=".035"/></pattern><linearGradient id="glow"><stop stop-color="#ffb978" stop-opacity=".13"/><stop offset="1" stop-color="#10151d" stop-opacity="0"/></linearGradient></defs>
<rect width="1200" height="330" fill="#10151d"/>
<rect width="1200" height="330" fill="url(#grid)"/>
<rect width="1200" height="330" fill="url(#glow)"/>
<path d="M0 0H1200" stroke="#ffb978" stroke-width="5"/>
<text x="30" y="43" fill="#ffb978" font-family="Arial,Helvetica,sans-serif" font-size="17" font-weight="600" letter-spacing="2">CLOUD SECURITY / REPEATABLE IMAGE BUILDS</text>
<text x="30" y="92" fill="#f0f2f5" font-family="Arial,Helvetica,sans-serif" font-size="34" font-weight="700" letter-spacing="0">CIS HARDENED AMI</text>
<rect x="30" y="130" width="264" height="98" rx="8" fill="#171e28" stroke="#34404d"/>
<text x="48" y="159" fill="#ffb978" font-family="Arial,Helvetica,sans-serif" font-size="16" font-weight="600" letter-spacing="2">01</text>
<text x="48" y="196" fill="#f0f2f5" font-family="Arial,Helvetica,sans-serif" font-size="21" font-weight="600" letter-spacing="0">Packer build</text>
<path d="M299 179h18m-5-5 5 5-5 5" fill="none" stroke="#ffb978" stroke-width="2"/>
<rect x="322" y="130" width="264" height="98" rx="8" fill="#171e28" stroke="#34404d"/>
<text x="340" y="159" fill="#ffb978" font-family="Arial,Helvetica,sans-serif" font-size="16" font-weight="600" letter-spacing="2">02</text>
<text x="340" y="196" fill="#f0f2f5" font-family="Arial,Helvetica,sans-serif" font-size="21" font-weight="600" letter-spacing="0">Ansible rules</text>
<path d="M591 179h18m-5-5 5 5-5 5" fill="none" stroke="#ffb978" stroke-width="2"/>
<rect x="614" y="130" width="264" height="98" rx="8" fill="#171e28" stroke="#34404d"/>
<text x="632" y="159" fill="#ffb978" font-family="Arial,Helvetica,sans-serif" font-size="16" font-weight="600" letter-spacing="2">03</text>
<text x="632" y="196" fill="#f0f2f5" font-family="Arial,Helvetica,sans-serif" font-size="21" font-weight="600" letter-spacing="0">Image hardening</text>
<path d="M883 179h18m-5-5 5 5-5 5" fill="none" stroke="#ffb978" stroke-width="2"/>
<rect x="906" y="130" width="264" height="98" rx="8" fill="#171e28" stroke="#34404d"/>
<text x="924" y="159" fill="#ffb978" font-family="Arial,Helvetica,sans-serif" font-size="16" font-weight="600" letter-spacing="2">04</text>
<text x="924" y="196" fill="#f0f2f5" font-family="Arial,Helvetica,sans-serif" font-size="21" font-weight="600" letter-spacing="0">AMI artifact</text>
<text x="30" y="271" fill="#aebac7" font-family="Arial,Helvetica,sans-serif" font-size="18" font-weight="400" letter-spacing="0">Image creation and hardening rules stay separate</text>
<text x="30" y="303" fill="#aebac7" font-family="Arial,Helvetica,sans-serif" font-size="18" font-weight="400" letter-spacing="0">Uses upstream AMAZON2-CIS rules</text>
</svg>